<svg xmlns="http://www.w3.org/2000/svg" xmlns:xlink="http://www.w3.org/1999/xlink" width="840" height="190.26"><rect width="840" height="190.26" rx="5" ry="5" class="a"></rect><svg y="0%" x="0%"><circle cx="20" cy="20" r="6" class="b"></circle><circle cx="40" cy="20" r="6" class="c"></circle><circle cx="60" cy="20" r="6" class="d"></circle></svg><svg height="130.26" viewBox="0 0 80 13.026" width="800" x="15" xmlns="http://www.w3.org/2000/svg" xmlns:xlink="http://www.w3.org/1999/xlink" y="50"><style>.a{fill:rgb(40,45,53)}.b{fill:#ff5f58}.c{fill:#ffbd2e}.d{fill:#18c132}.e{font-family:'Fira Code',Monaco,Consolas,Menlo,'Bitstream Vera Sans Mono','Powerline Symbols',monospace}.f{fill:rgb(185,192,203);white-space:pre}.g{fill:transparent}.i{animation-duration:18.075413942337s;animation-iteration-count:infinite;animation-name:h;animation-timing-function:steps(1,end)}@keyframes h{0%{transform:translateX(-0px)}11.11%{transform:translateX(-80px)}22.21%{transform:translateX(-160px)}33.34%{transform:translateX(-240px)}44.45%{transform:translateX(-320px)}55.54%{transform:translateX(-400px)}66.63%{transform:translateX(-480px)}100%{transform:translateX(-560px)}}</style><g font-family="&#x27;Fira Code&#x27;,Monaco,Consolas,Menlo,&#x27;Bitstream Vera Sans Mono&#x27;,&#x27;Powerline Symbols&#x27;,monospace" font-size="1.67" class="e"><defs><symbol id="1"><text x="0" y="1.67" class="f">Got</text><text x="4.008" y="1.67" class="f">a</text><text x="6.012" y="1.67" class="f">secret,</text><text x="14.027999999999999" y="1.67" class="f">can</text><text x="18.035999999999998" y="1.67" class="f">you</text><text x="22.043999999999997" y="1.67" class="f">keep</text><text x="27.054" y="1.67" class="f">it?</text></symbol><symbol id="2"><text x="0" y="1.67" class="f">Swear</text><text x="6.012" y="1.67" class="f">this</text><text x="11.021999999999998" y="1.67" class="f">one</text><text x="15.029999999999998" y="1.67" class="f">you&#x27;ll</text><text x="22.043999999999997" y="1.67" class="f">save</text></symbol><symbol id="3"><text x="0" y="1.67" class="f">Better</text><text x="7.013999999999999" y="1.67" class="f">lock</text><text x="12.024" y="1.67" class="f">it</text><text x="15.029999999999998" y="1.67" class="f">in</text><text x="18.035999999999998" y="1.67" class="f">your</text><text x="23.045999999999996" y="1.67" class="f">pocket</text></symbol><symbol id="4"><text x="0" y="1.67" class="f">Taking</text><text x="7.013999999999999" y="1.67" class="f">this</text><text x="12.024" y="1.67" class="f">one</text><text x="16.032" y="1.67" class="f">to</text><text x="19.037999999999997" y="1.67" class="f">the</text><text x="23.045999999999996" y="1.67" class="f">grave</text></symbol><symbol id="5"><text x="0" y="1.67" class="f">If</text><text x="3.006" y="1.67" class="f">I</text><text x="5.01" y="1.67" class="f">show</text><text x="10.02" y="1.67" class="f">you</text><text x="14.027999999999999" y="1.67" class="f">then</text><text x="19.037999999999997" y="1.67" class="f">I</text><text x="21.041999999999998" y="1.67" class="f">know</text><text x="26.052" y="1.67" class="f">you</text><text x="30.059999999999995" y="1.67" class="f">won&#x27;t</text><text x="36.071999999999996" y="1.67" class="f">tell</text><text x="41.082" y="1.67" class="f">what</text><text x="46.09199999999999" y="1.67" class="f">I</text><text x="48.096" y="1.67" class="f">said</text></symbol><symbol id="6"><text x="0" y="1.67" class="f">Cause</text><text x="6.012" y="1.67" class="f">two</text><text x="10.02" y="1.67" class="f">can</text><text x="14.027999999999999" y="1.67" class="f">keep</text><text x="19.037999999999997" y="1.67" class="f">a</text><text x="21.041999999999998" y="1.67" class="f">secret</text><text x="28.055999999999997" y="1.67" class="f">if</text><text x="31.061999999999998" y="1.67" class="f">one</text><text x="35.06999999999999" y="1.67" class="f">of</text><text x="38.07599999999999" y="1.67" class="f">them</text><text x="43.086" y="1.67" class="f">is</text><text x="46.09199999999999" y="1.67" class="f">dead</text></symbol><symbol id="a"><rect height="7" width="80" x="0" y="0" class="g"></rect></symbol></defs><rect height="13.026" width="80" class="a"></rect><g class="i"><svg x="0" y="0" width="640"><svg x="0"><use xlink:href="#a"></use></svg><svg x="80"><use xlink:href="#a"></use><use xlink:href="#1" y="0"></use></svg><svg x="160"><use xlink:href="#a"></use><use xlink:href="#1" y="0"></use><use xlink:href="#2" y="2.171"></use></svg><svg x="240"><use xlink:href="#a"></use><use xlink:href="#1" y="0"></use><use xlink:href="#2" y="2.171"></use><use xlink:href="#3" y="4.342"></use></svg><svg x="320"><use xlink:href="#a"></use><use xlink:href="#1" y="0"></use><use xlink:href="#2" y="2.171"></use><use xlink:href="#3" y="4.342"></use><use xlink:href="#4" y="6.513"></use></svg><svg x="400"><use xlink:href="#a"></use><use xlink:href="#1" y="0"></use><use xlink:href="#2" y="2.171"></use><use xlink:href="#3" y="4.342"></use><use xlink:href="#4" y="6.513"></use><use xlink:href="#5" y="8.684"></use></svg><svg x="480"><use xlink:href="#a"></use><use xlink:href="#1" y="0"></use><use xlink:href="#2" y="2.171"></use><use xlink:href="#3" y="4.342"></use><use xlink:href="#4" y="6.513"></use><use xlink:href="#5" y="8.684"></use><use xlink:href="#6" y="10.855"></use></svg><svg x="560"><use xlink:href="#a"></use><use xlink:href="#1" y="0"></use><use xlink:href="#2" y="2.171"></use><use xlink:href="#3" y="4.342"></use><use xlink:href="#4" y="6.513"></use><use xlink:href="#5" y="8.684"></use><use xlink:href="#6" y="10.855"></use></svg></svg></g></g></svg></svg>